<svg xmlns="http://www.w3.org/2000/svg" xmlns:xlink="http://www.w3.org/1999/xlink" width="500" zoomAndPan="magnify" viewBox="0 0 375 374.999991" height="500" preserveAspectRatio="xMidYMid meet" version="1.0"><defs><g/><clipPath id="06d08d1cc5"><path d="M 44.113281 188 L 89 188 L 89 234.925781 L 44.113281 234.925781 Z M 44.113281 188 " clip-rule="nonzero"/></clipPath><clipPath id="6604fa025c"><path d="M 70 188 L 153 188 L 153 234.925781 L 70 234.925781 Z M 70 188 " clip-rule="nonzero"/></clipPath><clipPath id="e88a9fa1ab"><path d="M 44.113281 140.425781 L 138 140.425781 L 138 220 L 44.113281 220 Z M 44.113281 140.425781 " clip-rule="nonzero"/></clipPath><clipPath id="d7a877d552"><path d="M 94 140.425781 L 164.113281 140.425781 L 164.113281 220 L 94 220 Z M 94 140.425781 " clip-rule="nonzero"/></clipPath><clipPath id="d3f1631bcb"><path d="M 44.113281 188 L 55 188 L 55 220 L 44.113281 220 Z M 44.113281 188 " clip-rule="nonzero"/></clipPath></defs><g clip-path="url(#06d08d1cc5)"><path fill="#80cc28" d="M 30.421875 188.269531 L 54.367188 219.398438 L 88.15625 263.332031 L 6.472656 219.398438 L 30.421875 188.269531 " fill-opacity="1" fill-rule="nonzero"/></g><g clip-path="url(#6604fa025c)"><path fill="#7b7979" d="M 70.324219 219.398438 L 94.273438 188.269531 L 118.21875 219.398438 L 152.148438 263.332031 L 104.117188 263.332031 L 70.324219 219.398438 " fill-opacity="1" fill-rule="nonzero"/></g><g clip-path="url(#e88a9fa1ab)"><path fill="#27963c" d="M 89.734375 111.15625 L 137.628906 111.15625 L 54.367188 219.398438 L 30.421875 188.269531 L 89.734375 111.15625 " fill-opacity="1" fill-rule="nonzero"/></g><g clip-path="url(#d7a877d552)"><path fill="#4f4c4c" d="M 153.585938 111.15625 L 201.480469 111.15625 L 118.21875 219.398438 L 94.273438 188.269531 L 153.585938 111.15625 " fill-opacity="1" fill-rule="nonzero"/></g><path fill="#656263" d="M 118.21875 219.398438 L 70.324219 219.398438 L 94.273438 188.269531 Z M 118.21875 219.398438 " fill-opacity="1" fill-rule="nonzero"/><g clip-path="url(#d3f1631bcb)"><path fill="#40b93c" d="M 54.367188 219.398438 L 6.472656 219.398438 L 30.421875 188.269531 Z M 54.367188 219.398438 " fill-opacity="1" fill-rule="nonzero"/></g><g fill="#f8f8f8" fill-opacity="1"><g transform="translate(139.303992, 224.919412)"><g><path d="M 0.3125 0 L 10.078125 -24.5625 L 15.546875 -24.5625 L 25.296875 0 L 19.34375 0 L 17.6875 -4.25 L 7.9375 -4.25 L 6.28125 0 Z M 9.375 -8.640625 L 16.28125 -8.640625 L 12.8125 -17.609375 Z M 9.375 -8.640625 "/></g></g></g><g fill="#f8f8f8" fill-opacity="1"><g transform="translate(163.277119, 224.919412)"><g><path d="M 2.953125 0 L 2.953125 -24.5625 L 12.671875 -24.5625 C 15.265625 -24.5625 17.53125 -24.046875 19.46875 -23.015625 C 21.414062 -21.992188 22.925781 -20.554688 24 -18.703125 C 25.082031 -16.859375 25.625 -14.71875 25.625 -12.28125 C 25.625 -9.820312 25.082031 -7.675781 24 -5.84375 C 22.925781 -4.007812 21.414062 -2.578125 19.46875 -1.546875 C 17.53125 -0.515625 15.265625 0 12.671875 0 Z M 8.53125 -5.125 L 12.5625 -5.125 C 14.007812 -5.125 15.28125 -5.421875 16.375 -6.015625 C 17.476562 -6.609375 18.335938 -7.441406 18.953125 -8.515625 C 19.578125 -9.597656 19.890625 -10.851562 19.890625 -12.28125 C 19.890625 -13.726562 19.578125 -14.984375 18.953125 -16.046875 C 18.335938 -17.117188 17.472656 -17.953125 16.359375 -18.546875 C 15.253906 -19.140625 13.96875 -19.4375 12.5 -19.4375 L 8.53125 -19.4375 Z M 8.53125 -5.125 "/></g></g></g><g fill="#f8f8f8" fill-opacity="1"><g transform="translate(188.724445, 224.919412)"><g><path d="M 0.3125 0 L 10.078125 -24.5625 L 15.546875 -24.5625 L 25.296875 0 L 19.34375 0 L 17.6875 -4.25 L 7.9375 -4.25 L 6.28125 0 Z M 9.375 -8.640625 L 16.28125 -8.640625 L 12.8125 -17.609375 Z M 9.375 -8.640625 "/></g></g></g><g fill="#f8f8f8" fill-opacity="1"><g transform="translate(212.697574, 224.919412)"><g><path d="M 2.953125 0 L 2.953125 -24.5625 L 13.9375 -24.5625 C 16.4375 -24.5625 18.421875 -23.960938 19.890625 -22.765625 C 21.367188 -21.578125 22.109375 -19.976562 22.109375 -17.96875 C 22.109375 -16.820312 21.847656 -15.78125 21.328125 -14.84375 C 20.816406 -13.90625 20.09375 -13.171875 19.15625 -12.640625 C 20.332031 -12.117188 21.238281 -11.351562 21.875 -10.34375 C 22.519531 -9.34375 22.84375 -8.1875 22.84375 -6.875 C 22.84375 -5.5 22.488281 -4.296875 21.78125 -3.265625 C 21.082031 -2.234375 20.109375 -1.429688 18.859375 -0.859375 C 17.609375 -0.285156 16.15625 0 14.5 0 Z M 8.453125 -4.421875 L 13.65625 -4.421875 C 14.75 -4.421875 15.597656 -4.675781 16.203125 -5.1875 C 16.816406 -5.707031 17.125 -6.4375 17.125 -7.375 C 17.125 -8.3125 16.816406 -9.035156 16.203125 -9.546875 C 15.597656 -10.054688 14.75 -10.3125 13.65625 -10.3125 L 8.453125 -10.3125 Z M 8.453125 -14.5625 L 13.09375 -14.5625 C 14.164062 -14.5625 14.988281 -14.804688 15.5625 -15.296875 C 16.132812 -15.785156 16.421875 -16.476562 16.421875 -17.375 C 16.421875 -18.257812 16.132812 -18.941406 15.5625 -19.421875 C 14.988281 -19.898438 14.164062 -20.140625 13.09375 -20.140625 L 8.453125 -20.140625 Z M 8.453125 -14.5625 "/></g></g></g><g fill="#f8f8f8" fill-opacity="1"><g transform="translate(235.231591, 224.919412)"><g><path d="M 9.375 0 L 9.375 -8.59375 L 0.3125 -24.5625 L 6.671875 -24.5625 L 9.71875 -18.875 L 12.171875 -14.421875 L 14.59375 -18.875 L 17.609375 -24.5625 L 23.96875 -24.5625 L 14.953125 -8.671875 L 14.953125 0 Z M 9.375 0 "/></g></g></g><g fill="#f8f8f8" fill-opacity="1"><g transform="translate(257.870911, 224.919412)"><g><path d="M 8.84375 0 L 8.84375 -19.34375 L 1.046875 -19.34375 L 1.046875 -24.5625 L 22.21875 -24.5625 L 22.21875 -19.34375 L 14.421875 -19.34375 L 14.421875 0 Z M 8.84375 0 "/></g></g></g><g fill="#f8f8f8" fill-opacity="1"><g transform="translate(279.492334, 224.919412)"><g><path d="M 2.953125 0 L 2.953125 -24.5625 L 19.09375 -24.5625 L 19.09375 -19.859375 L 8.5 -19.859375 L 8.5 -14.78125 L 18.140625 -14.78125 L 18.140625 -10.109375 L 8.5 -10.109375 L 8.5 -4.734375 L 19.484375 -4.734375 L 19.484375 0 Z M 2.953125 0 "/></g></g></g><path fill="#f8f8f8" d="M 234.585938 196.09375 L 298.347656 196.09375 L 298.347656 196.84375 L 234.585938 196.84375 Z M 234.585938 196.09375 " fill-opacity="1" fill-rule="nonzero"/><g fill="#f8f8f8" fill-opacity="1"><g transform="translate(234.584901, 195.342995)"><g><path d="M 0.96875 0 L 0.96875 -6.6875 L 3.28125 -6.6875 C 3.96875 -6.6875 4.566406 -6.539062 5.078125 -6.25 C 5.597656 -5.96875 6 -5.578125 6.28125 -5.078125 C 6.570312 -4.578125 6.71875 -4 6.71875 -3.34375 C 6.71875 -2.6875 6.570312 -2.101562 6.28125 -1.59375 C 6 -1.09375 5.597656 -0.703125 5.078125 -0.421875 C 4.566406 -0.140625 3.96875 0 3.28125 0 Z M 1.8125 -0.796875 L 3.28125 -0.796875 C 3.789062 -0.796875 4.238281 -0.898438 4.625 -1.109375 C 5.007812 -1.328125 5.3125 -1.628906 5.53125 -2.015625 C 5.75 -2.398438 5.859375 -2.84375 5.859375 -3.34375 C 5.859375 -3.851562 5.742188 -4.296875 5.515625 -4.671875 C 5.296875 -5.046875 4.992188 -5.335938 4.609375 -5.546875 C 4.222656 -5.765625 3.769531 -5.875 3.25 -5.875 L 1.8125 -5.875 Z M 1.8125 -0.796875 "/></g></g></g><g fill="#f8f8f8" fill-opacity="1"><g transform="translate(243.219991, 195.342995)"><g><path d="M 2.671875 0 L 2.671875 -2.40625 L 0.15625 -6.6875 L 1.140625 -6.6875 L 2.21875 -4.8125 L 3.09375 -3.296875 L 5.0625 -6.6875 L 6 -6.6875 L 3.5 -2.40625 L 3.5 0 Z M 2.671875 0 "/></g></g></g><g fill="#f8f8f8" fill-opacity="1"><g transform="translate(250.758097, 195.342995)"><g><path d="M 0.96875 0 L 0.96875 -6.6875 L 1.765625 -6.6875 L 5.453125 -1.453125 L 5.453125 -6.6875 L 6.28125 -6.6875 L 6.28125 0 L 5.5 0 L 1.796875 -5.234375 L 1.796875 0 Z M 0.96875 0 "/></g></g></g><g fill="#f8f8f8" fill-opacity="1"><g transform="translate(259.383654, 195.342995)"><g><path d="M 0.15625 0 L 2.90625 -6.6875 L 3.6875 -6.6875 L 6.4375 0 L 5.5625 0 L 4.921875 -1.515625 L 1.671875 -1.515625 L 1.0625 0 Z M 2 -2.296875 L 4.609375 -2.296875 L 3.296875 -5.515625 Z M 2 -2.296875 "/></g></g></g><g fill="#f8f8f8" fill-opacity="1"><g transform="translate(267.360561, 195.342995)"><g><path d="M 0.96875 0 L 0.96875 -6.6875 L 1.75 -6.6875 L 4.375 -2.71875 L 6.984375 -6.6875 L 7.765625 -6.6875 L 7.765625 0 L 6.9375 0 L 6.9375 -5.109375 L 4.71875 -1.78125 L 4.03125 -1.78125 L 1.8125 -5.109375 L 1.8125 0 Z M 0.96875 0 "/></g></g></g><g fill="#f8f8f8" fill-opacity="1"><g transform="translate(277.474205, 195.342995)"><g><path d="M 0.96875 0 L 0.96875 -6.6875 L 1.8125 -6.6875 L 1.8125 0 Z M 0.96875 0 "/></g></g></g><g fill="#f8f8f8" fill-opacity="1"><g transform="translate(281.635502, 195.342995)"><g><path d="M 3.9375 0.125 C 3.445312 0.125 2.992188 0.0390625 2.578125 -0.125 C 2.160156 -0.300781 1.800781 -0.539062 1.5 -0.84375 C 1.195312 -1.15625 0.960938 -1.523438 0.796875 -1.953125 C 0.628906 -2.378906 0.546875 -2.84375 0.546875 -3.34375 C 0.546875 -3.84375 0.628906 -4.300781 0.796875 -4.71875 C 0.960938 -5.144531 1.195312 -5.515625 1.5 -5.828125 C 1.800781 -6.140625 2.160156 -6.378906 2.578125 -6.546875 C 2.992188 -6.722656 3.445312 -6.8125 3.9375 -6.8125 C 4.457031 -6.8125 4.9375 -6.710938 5.375 -6.515625 C 5.820312 -6.316406 6.203125 -6.035156 6.515625 -5.671875 C 6.835938 -5.316406 7.070312 -4.894531 7.21875 -4.40625 L 6.3125 -4.40625 C 6.144531 -4.894531 5.847656 -5.273438 5.421875 -5.546875 C 5.003906 -5.828125 4.519531 -5.96875 3.96875 -5.96875 C 3.46875 -5.96875 3.023438 -5.851562 2.640625 -5.625 C 2.265625 -5.40625 1.960938 -5.097656 1.734375 -4.703125 C 1.515625 -4.304688 1.40625 -3.851562 1.40625 -3.34375 C 1.40625 -2.820312 1.515625 -2.363281 1.734375 -1.96875 C 1.960938 -1.582031 2.265625 -1.273438 2.640625 -1.046875 C 3.023438 -0.828125 3.46875 -0.71875 3.96875 -0.71875 C 4.53125 -0.71875 5.03125 -0.863281 5.46875 -1.15625 C 5.90625 -1.445312 6.210938 -1.84375 6.390625 -2.34375 L 7.28125 -2.34375 C 7.144531 -1.851562 6.914062 -1.421875 6.59375 -1.046875 C 6.269531 -0.679688 5.878906 -0.394531 5.421875 -0.1875 C 4.972656 0.0195312 4.476562 0.125 3.9375 0.125 Z M 3.9375 0.125 "/></g></g></g><g fill="#f8f8f8" fill-opacity="1"><g transform="translate(290.795244, 195.342995)"><g><path d="M 3.203125 0.125 C 2.660156 0.125 2.191406 0.0351562 1.796875 -0.140625 C 1.410156 -0.328125 1.109375 -0.582031 0.890625 -0.90625 C 0.679688 -1.238281 0.578125 -1.617188 0.578125 -2.046875 L 1.40625 -2.046875 C 1.425781 -1.617188 1.597656 -1.28125 1.921875 -1.03125 C 2.253906 -0.789062 2.679688 -0.671875 3.203125 -0.671875 C 3.671875 -0.671875 4.039062 -0.765625 4.3125 -0.953125 C 4.59375 -1.140625 4.734375 -1.398438 4.734375 -1.734375 C 4.734375 -2.046875 4.597656 -2.296875 4.328125 -2.484375 C 4.066406 -2.671875 3.632812 -2.832031 3.03125 -2.96875 C 2.207031 -3.164062 1.601562 -3.414062 1.21875 -3.71875 C 0.84375 -4.03125 0.65625 -4.445312 0.65625 -4.96875 C 0.65625 -5.53125 0.867188 -5.976562 1.296875 -6.3125 C 1.722656 -6.644531 2.300781 -6.8125 3.03125 -6.8125 C 3.78125 -6.8125 4.375 -6.625 4.8125 -6.25 C 5.25 -5.875 5.472656 -5.359375 5.484375 -4.703125 L 4.65625 -4.703125 C 4.644531 -5.109375 4.492188 -5.425781 4.203125 -5.65625 C 3.910156 -5.882812 3.519531 -6 3.03125 -6 C 2.550781 -6 2.175781 -5.90625 1.90625 -5.71875 C 1.644531 -5.53125 1.515625 -5.28125 1.515625 -4.96875 C 1.515625 -4.6875 1.640625 -4.453125 1.890625 -4.265625 C 2.140625 -4.078125 2.585938 -3.90625 3.234375 -3.75 C 4.085938 -3.539062 4.695312 -3.273438 5.0625 -2.953125 C 5.425781 -2.640625 5.609375 -2.238281 5.609375 -1.75 C 5.609375 -1.175781 5.390625 -0.71875 4.953125 -0.375 C 4.515625 -0.0390625 3.929688 0.125 3.203125 0.125 Z M 3.203125 0.125 "/></g></g></g></svg>