<svg xmlns="http://www.w3.org/2000/svg" xmlns:xlink="http://www.w3.org/1999/xlink" width="62" zoomAndPan="magnify" viewBox="0 0 46.5 16.5" height="22" preserveAspectRatio="xMidYMid meet" version="1.0"><defs><g/><clipPath id="d2904e4560"><path d="M 0.441406 7 L 8 7 L 8 14.257812 L 0.441406 14.257812 Z M 0.441406 7 " clip-rule="nonzero"/></clipPath><clipPath id="0e0cbe1dca"><path d="M 4 7 L 17 7 L 17 14.257812 L 4 14.257812 Z M 4 7 " clip-rule="nonzero"/></clipPath><clipPath id="a92c0929bc"><path d="M 0.441406 0 L 15 0 L 15 12 L 0.441406 12 Z M 0.441406 0 " clip-rule="nonzero"/></clipPath><clipPath id="3c0146fdc5"><path d="M 8 0 L 18.542969 0 L 18.542969 12 L 8 12 Z M 8 0 " clip-rule="nonzero"/></clipPath><clipPath id="82acd5dcc5"><path d="M 0.441406 7 L 2 7 L 2 12 L 0.441406 12 Z M 0.441406 7 " clip-rule="nonzero"/></clipPath></defs><g clip-path="url(#d2904e4560)"><path fill="#80cc28" d="M -1.625 7.21875 L 1.988281 11.914062 L 7.085938 18.542969 L -5.238281 11.914062 L -1.625 7.21875 " fill-opacity="1" fill-rule="nonzero"/></g><g clip-path="url(#0e0cbe1dca)"><path fill="#7b7979" d="M 4.394531 11.914062 L 8.007812 7.21875 L 11.621094 11.914062 L 16.738281 18.542969 L 9.492188 18.542969 L 4.394531 11.914062 " fill-opacity="1" fill-rule="nonzero"/></g><g clip-path="url(#a92c0929bc)"><path fill="#27963c" d="M 7.324219 -4.414062 L 14.546875 -4.414062 L 1.988281 11.914062 L -1.625 7.21875 L 7.324219 -4.414062 " fill-opacity="1" fill-rule="nonzero"/></g><g clip-path="url(#3c0146fdc5)"><path fill="#4f4c4c" d="M 16.957031 -4.414062 L 24.179688 -4.414062 L 11.621094 11.914062 L 8.007812 7.21875 L 16.957031 -4.414062 " fill-opacity="1" fill-rule="nonzero"/></g><path fill="#656263" d="M 11.621094 11.914062 L 4.394531 11.914062 L 8.007812 7.21875 Z M 11.621094 11.914062 " fill-opacity="1" fill-rule="nonzero"/><g clip-path="url(#82acd5dcc5)"><path fill="#40b93c" d="M 1.988281 11.914062 L -5.238281 11.914062 L -1.625 7.21875 Z M 1.988281 11.914062 " fill-opacity="1" fill-rule="nonzero"/></g><g fill="#f8f8f8" fill-opacity="1"><g transform="translate(14.801455, 12.746369)"><g><path d="M 0.046875 0 L 1.515625 -3.703125 L 2.34375 -3.703125 L 3.8125 0 L 2.921875 0 L 2.671875 -0.640625 L 1.203125 -0.640625 L 0.953125 0 Z M 1.421875 -1.296875 L 2.453125 -1.296875 L 1.9375 -2.65625 Z M 1.421875 -1.296875 "/></g></g></g><g fill="#f8f8f8" fill-opacity="1"><g transform="translate(18.418002, 12.746369)"><g><path d="M 0.4375 0 L 0.4375 -3.703125 L 1.90625 -3.703125 C 2.300781 -3.703125 2.644531 -3.625 2.9375 -3.46875 C 3.226562 -3.3125 3.453125 -3.09375 3.609375 -2.8125 C 3.773438 -2.539062 3.859375 -2.222656 3.859375 -1.859375 C 3.859375 -1.484375 3.773438 -1.15625 3.609375 -0.875 C 3.453125 -0.601562 3.226562 -0.390625 2.9375 -0.234375 C 2.644531 -0.078125 2.300781 0 1.90625 0 Z M 1.28125 -0.765625 L 1.890625 -0.765625 C 2.109375 -0.765625 2.300781 -0.8125 2.46875 -0.90625 C 2.632812 -1 2.765625 -1.125 2.859375 -1.28125 C 2.953125 -1.445312 3 -1.640625 3 -1.859375 C 3 -2.078125 2.953125 -2.265625 2.859375 -2.421875 C 2.765625 -2.585938 2.632812 -2.710938 2.46875 -2.796875 C 2.300781 -2.890625 2.109375 -2.9375 1.890625 -2.9375 L 1.28125 -2.9375 Z M 1.28125 -0.765625 "/></g></g></g><g fill="#f8f8f8" fill-opacity="1"><g transform="translate(22.256943, 12.746369)"><g><path d="M 0.046875 0 L 1.515625 -3.703125 L 2.34375 -3.703125 L 3.8125 0 L 2.921875 0 L 2.671875 -0.640625 L 1.203125 -0.640625 L 0.953125 0 Z M 1.421875 -1.296875 L 2.453125 -1.296875 L 1.9375 -2.65625 Z M 1.421875 -1.296875 "/></g></g></g><g fill="#f8f8f8" fill-opacity="1"><g transform="translate(25.87349, 12.746369)"><g><path d="M 0.4375 0 L 0.4375 -3.703125 L 2.109375 -3.703125 C 2.484375 -3.703125 2.78125 -3.613281 3 -3.4375 C 3.226562 -3.257812 3.34375 -3.019531 3.34375 -2.71875 C 3.34375 -2.539062 3.300781 -2.378906 3.21875 -2.234375 C 3.144531 -2.097656 3.035156 -1.988281 2.890625 -1.90625 C 3.066406 -1.832031 3.203125 -1.71875 3.296875 -1.5625 C 3.398438 -1.40625 3.453125 -1.226562 3.453125 -1.03125 C 3.453125 -0.820312 3.394531 -0.640625 3.28125 -0.484375 C 3.175781 -0.335938 3.03125 -0.21875 2.84375 -0.125 C 2.65625 -0.0390625 2.4375 0 2.1875 0 Z M 1.28125 -0.671875 L 2.0625 -0.671875 C 2.226562 -0.671875 2.351562 -0.707031 2.4375 -0.78125 C 2.53125 -0.863281 2.578125 -0.972656 2.578125 -1.109375 C 2.578125 -1.253906 2.53125 -1.363281 2.4375 -1.4375 C 2.351562 -1.519531 2.226562 -1.5625 2.0625 -1.5625 L 1.28125 -1.5625 Z M 1.28125 -2.203125 L 1.96875 -2.203125 C 2.132812 -2.203125 2.257812 -2.238281 2.34375 -2.3125 C 2.4375 -2.382812 2.484375 -2.488281 2.484375 -2.625 C 2.484375 -2.757812 2.4375 -2.863281 2.34375 -2.9375 C 2.257812 -3.007812 2.132812 -3.046875 1.96875 -3.046875 L 1.28125 -3.046875 Z M 1.28125 -2.203125 "/></g></g></g><g fill="#f8f8f8" fill-opacity="1"><g transform="translate(29.272935, 12.746369)"><g><path d="M 1.421875 0 L 1.421875 -1.296875 L 0.046875 -3.703125 L 1 -3.703125 L 1.46875 -2.84375 L 1.84375 -2.171875 L 2.203125 -2.84375 L 2.65625 -3.703125 L 3.625 -3.703125 L 2.25 -1.3125 L 2.25 0 Z M 1.421875 0 "/></g></g></g><g fill="#f8f8f8" fill-opacity="1"><g transform="translate(32.688265, 12.746369)"><g><path d="M 1.328125 0 L 1.328125 -2.921875 L 0.15625 -2.921875 L 0.15625 -3.703125 L 3.359375 -3.703125 L 3.359375 -2.921875 L 2.171875 -2.921875 L 2.171875 0 Z M 1.328125 0 "/></g></g></g><g fill="#f8f8f8" fill-opacity="1"><g transform="translate(35.950037, 12.746369)"><g><path d="M 0.4375 0 L 0.4375 -3.703125 L 2.875 -3.703125 L 2.875 -3 L 1.28125 -3 L 1.28125 -2.234375 L 2.734375 -2.234375 L 2.734375 -1.53125 L 1.28125 -1.53125 L 1.28125 -0.71875 L 2.9375 -0.71875 L 2.9375 0 Z M 0.4375 0 "/></g></g></g><path fill="#f8f8f8" d="M 29.175781 8.398438 L 38.792969 8.398438 L 38.792969 8.511719 L 29.175781 8.511719 Z M 29.175781 8.398438 " fill-opacity="1" fill-rule="nonzero"/><g fill="#f8f8f8" fill-opacity="1"><g transform="translate(29.175373, 8.284519)"><g><path d="M 0.140625 0 L 0.140625 -1 L 0.5 -1 C 0.601562 -1 0.691406 -0.976562 0.765625 -0.9375 C 0.835938 -0.894531 0.894531 -0.835938 0.9375 -0.765625 C 0.988281 -0.691406 1.015625 -0.601562 1.015625 -0.5 C 1.015625 -0.40625 0.988281 -0.316406 0.9375 -0.234375 C 0.894531 -0.160156 0.835938 -0.101562 0.765625 -0.0625 C 0.691406 -0.0195312 0.601562 0 0.5 0 Z M 0.265625 -0.125 L 0.5 -0.125 C 0.570312 -0.125 0.632812 -0.140625 0.6875 -0.171875 C 0.75 -0.203125 0.796875 -0.242188 0.828125 -0.296875 C 0.859375 -0.359375 0.875 -0.425781 0.875 -0.5 C 0.875 -0.582031 0.859375 -0.648438 0.828125 -0.703125 C 0.796875 -0.765625 0.75 -0.8125 0.6875 -0.84375 C 0.632812 -0.875 0.566406 -0.890625 0.484375 -0.890625 L 0.265625 -0.890625 Z M 0.265625 -0.125 "/></g></g></g><g fill="#f8f8f8" fill-opacity="1"><g transform="translate(30.478048, 8.284519)"><g><path d="M 0.40625 0 L 0.40625 -0.359375 L 0.03125 -1 L 0.171875 -1 L 0.328125 -0.71875 L 0.46875 -0.5 L 0.765625 -1 L 0.90625 -1 L 0.53125 -0.359375 L 0.53125 0 Z M 0.40625 0 "/></g></g></g><g fill="#f8f8f8" fill-opacity="1"><g transform="translate(31.615234, 8.284519)"><g><path d="M 0.140625 0 L 0.140625 -1 L 0.265625 -1 L 0.828125 -0.21875 L 0.828125 -1 L 0.953125 -1 L 0.953125 0 L 0.828125 0 L 0.265625 -0.78125 L 0.265625 0 Z M 0.140625 0 "/></g></g></g><g fill="#f8f8f8" fill-opacity="1"><g transform="translate(32.916472, 8.284519)"><g><path d="M 0.03125 0 L 0.4375 -1 L 0.5625 -1 L 0.96875 0 L 0.84375 0 L 0.734375 -0.234375 L 0.25 -0.234375 L 0.15625 0 Z M 0.296875 -0.34375 L 0.6875 -0.34375 L 0.5 -0.828125 Z M 0.296875 -0.34375 "/></g></g></g><g fill="#f8f8f8" fill-opacity="1"><g transform="translate(34.119854, 8.284519)"><g><path d="M 0.140625 0 L 0.140625 -1 L 0.265625 -1 L 0.65625 -0.40625 L 1.046875 -1 L 1.171875 -1 L 1.171875 0 L 1.046875 0 L 1.046875 -0.765625 L 0.703125 -0.265625 L 0.609375 -0.265625 L 0.265625 -0.765625 L 0.265625 0 Z M 0.140625 0 "/></g></g></g><g fill="#f8f8f8" fill-opacity="1"><g transform="translate(35.645582, 8.284519)"><g><path d="M 0.140625 0 L 0.140625 -1 L 0.265625 -1 L 0.265625 0 Z M 0.140625 0 "/></g></g></g><g fill="#f8f8f8" fill-opacity="1"><g transform="translate(36.273349, 8.284519)"><g><path d="M 0.59375 0.015625 C 0.519531 0.015625 0.453125 0.00390625 0.390625 -0.015625 C 0.328125 -0.046875 0.269531 -0.0820312 0.21875 -0.125 C 0.175781 -0.175781 0.140625 -0.234375 0.109375 -0.296875 C 0.0859375 -0.359375 0.078125 -0.425781 0.078125 -0.5 C 0.078125 -0.570312 0.0859375 -0.640625 0.109375 -0.703125 C 0.140625 -0.773438 0.175781 -0.832031 0.21875 -0.875 C 0.269531 -0.925781 0.328125 -0.960938 0.390625 -0.984375 C 0.453125 -1.015625 0.519531 -1.03125 0.59375 -1.03125 C 0.675781 -1.03125 0.75 -1.015625 0.8125 -0.984375 C 0.875 -0.953125 0.925781 -0.910156 0.96875 -0.859375 C 1.019531 -0.804688 1.0625 -0.742188 1.09375 -0.671875 L 0.953125 -0.671875 C 0.921875 -0.734375 0.875 -0.785156 0.8125 -0.828125 C 0.75 -0.867188 0.675781 -0.890625 0.59375 -0.890625 C 0.519531 -0.890625 0.453125 -0.875 0.390625 -0.84375 C 0.335938 -0.8125 0.296875 -0.765625 0.265625 -0.703125 C 0.234375 -0.648438 0.21875 -0.582031 0.21875 -0.5 C 0.21875 -0.425781 0.234375 -0.359375 0.265625 -0.296875 C 0.296875 -0.234375 0.335938 -0.1875 0.390625 -0.15625 C 0.453125 -0.125 0.519531 -0.109375 0.59375 -0.109375 C 0.675781 -0.109375 0.75 -0.128906 0.8125 -0.171875 C 0.882812 -0.210938 0.9375 -0.273438 0.96875 -0.359375 L 1.09375 -0.359375 C 1.070312 -0.273438 1.035156 -0.207031 0.984375 -0.15625 C 0.941406 -0.101562 0.882812 -0.0625 0.8125 -0.03125 C 0.75 0 0.675781 0.015625 0.59375 0.015625 Z M 0.59375 0.015625 "/></g></g></g><g fill="#f8f8f8" fill-opacity="1"><g transform="translate(37.655172, 8.284519)"><g><path d="M 0.484375 0.015625 C 0.398438 0.015625 0.328125 0.00390625 0.265625 -0.015625 C 0.210938 -0.046875 0.171875 -0.0859375 0.140625 -0.140625 C 0.109375 -0.191406 0.09375 -0.25 0.09375 -0.3125 L 0.21875 -0.3125 C 0.21875 -0.25 0.238281 -0.195312 0.28125 -0.15625 C 0.332031 -0.125 0.398438 -0.109375 0.484375 -0.109375 C 0.554688 -0.109375 0.613281 -0.117188 0.65625 -0.140625 C 0.695312 -0.171875 0.71875 -0.210938 0.71875 -0.265625 C 0.71875 -0.304688 0.695312 -0.34375 0.65625 -0.375 C 0.613281 -0.40625 0.546875 -0.429688 0.453125 -0.453125 C 0.328125 -0.472656 0.234375 -0.503906 0.171875 -0.546875 C 0.117188 -0.597656 0.09375 -0.664062 0.09375 -0.75 C 0.09375 -0.832031 0.125 -0.898438 0.1875 -0.953125 C 0.257812 -1.003906 0.347656 -1.03125 0.453125 -1.03125 C 0.566406 -1.03125 0.65625 -1 0.71875 -0.9375 C 0.789062 -0.882812 0.828125 -0.804688 0.828125 -0.703125 L 0.703125 -0.703125 C 0.703125 -0.765625 0.675781 -0.8125 0.625 -0.84375 C 0.582031 -0.882812 0.523438 -0.90625 0.453125 -0.90625 C 0.378906 -0.90625 0.320312 -0.890625 0.28125 -0.859375 C 0.25 -0.828125 0.234375 -0.789062 0.234375 -0.75 C 0.234375 -0.707031 0.25 -0.671875 0.28125 -0.640625 C 0.320312 -0.609375 0.390625 -0.582031 0.484375 -0.5625 C 0.617188 -0.53125 0.710938 -0.488281 0.765625 -0.4375 C 0.816406 -0.394531 0.84375 -0.335938 0.84375 -0.265625 C 0.84375 -0.179688 0.804688 -0.113281 0.734375 -0.0625 C 0.671875 -0.0078125 0.585938 0.015625 0.484375 0.015625 Z M 0.484375 0.015625 "/></g></g></g></svg>